<mxfile host="app.diagrams.net" modified="2021-11-23T16:45:26.997Z" agent="5.0 (Windows NT 10.0; Win64; x64) AppleWebKit/537.36 (KHTML, like Gecko) Chrome/96.0.4664.45 Safari/537.36" etag="bdkjxGGISySnMaLN7OxE" version="15.8.3" type="github">
  <diagram id="9sStHc7qpIZRtce8Uu0H" name="Page-1">
    <mxGraphModel dx="942" dy="614" grid="1" gridSize="10" guides="1" tooltips="1" connect="1" arrows="1" fold="1" page="1" pageScale="1" pageWidth="827" pageHeight="1169" math="0" shadow="0">
      <root>
        <mxCell id="0" />
        <mxCell id="1" parent="0" />
        <mxCell id="e9KdCS2GyOgtSJh7wHMH-17" value="" style="rounded=0;whiteSpace=wrap;html=1;fillColor=none;strokeWidth=5;" parent="1" vertex="1">
          <mxGeometry x="120" y="40" width="600" height="360" as="geometry" />
        </mxCell>
        <mxCell id="e9KdCS2GyOgtSJh7wHMH-1" value="Patient" style="shape=umlActor;verticalLabelPosition=bottom;verticalAlign=top;html=1;outlineConnect=0;" parent="1" vertex="1">
          <mxGeometry x="190" y="160" width="30" height="60" as="geometry" />
        </mxCell>
        <mxCell id="e9KdCS2GyOgtSJh7wHMH-2" value="Database" style="rounded=0;whiteSpace=wrap;html=1;" parent="1" vertex="1">
          <mxGeometry x="360" y="310" width="120" height="60" as="geometry" />
        </mxCell>
        <mxCell id="e9KdCS2GyOgtSJh7wHMH-3" value="Application" style="rounded=0;whiteSpace=wrap;html=1;" parent="1" vertex="1">
          <mxGeometry x="360" y="210" width="120" height="60" as="geometry" />
        </mxCell>
        <mxCell id="e9KdCS2GyOgtSJh7wHMH-5" value="" style="endArrow=none;dashed=1;html=1;rounded=0;entryX=0;entryY=0.5;entryDx=0;entryDy=0;exitX=1;exitY=0.3333333333333333;exitDx=0;exitDy=0;exitPerimeter=0;" parent="1" source="e9KdCS2GyOgtSJh7wHMH-1" target="e9KdCS2GyOgtSJh7wHMH-3" edge="1">
          <mxGeometry width="50" height="50" relative="1" as="geometry">
            <mxPoint x="250" y="265" as="sourcePoint" />
            <mxPoint x="300" y="215" as="targetPoint" />
          </mxGeometry>
        </mxCell>
        <mxCell id="e9KdCS2GyOgtSJh7wHMH-8" value="Tools" style="rounded=1;whiteSpace=wrap;html=1;" parent="1" vertex="1">
          <mxGeometry x="360" y="110" width="120" height="60" as="geometry" />
        </mxCell>
        <mxCell id="e9KdCS2GyOgtSJh7wHMH-9" value="" style="endArrow=none;html=1;rounded=0;entryX=0;entryY=0.5;entryDx=0;entryDy=0;exitX=1;exitY=0.3333333333333333;exitDx=0;exitDy=0;exitPerimeter=0;" parent="1" source="e9KdCS2GyOgtSJh7wHMH-1" target="e9KdCS2GyOgtSJh7wHMH-8" edge="1">
          <mxGeometry width="50" height="50" relative="1" as="geometry">
            <mxPoint x="280" y="200" as="sourcePoint" />
            <mxPoint x="330" y="150" as="targetPoint" />
          </mxGeometry>
        </mxCell>
        <mxCell id="e9KdCS2GyOgtSJh7wHMH-11" value="Medical Stuff" style="shape=umlActor;verticalLabelPosition=bottom;verticalAlign=top;html=1;outlineConnect=0;" parent="1" vertex="1">
          <mxGeometry x="630" y="160" width="30" height="60" as="geometry" />
        </mxCell>
        <mxCell id="e9KdCS2GyOgtSJh7wHMH-12" value="" style="endArrow=none;html=1;rounded=0;entryX=1;entryY=0.5;entryDx=0;entryDy=0;exitX=0;exitY=0.3333333333333333;exitDx=0;exitDy=0;exitPerimeter=0;" parent="1" source="e9KdCS2GyOgtSJh7wHMH-11" target="e9KdCS2GyOgtSJh7wHMH-8" edge="1">
          <mxGeometry width="50" height="50" relative="1" as="geometry">
            <mxPoint x="370" y="320" as="sourcePoint" />
            <mxPoint x="420" y="270" as="targetPoint" />
          </mxGeometry>
        </mxCell>
        <mxCell id="e9KdCS2GyOgtSJh7wHMH-13" value="" style="endArrow=none;dashed=1;html=1;dashPattern=1 3;strokeWidth=2;rounded=0;entryX=0;entryY=0.3333333333333333;entryDx=0;entryDy=0;entryPerimeter=0;exitX=1.025;exitY=0.4;exitDx=0;exitDy=0;exitPerimeter=0;" parent="1" source="e9KdCS2GyOgtSJh7wHMH-3" target="e9KdCS2GyOgtSJh7wHMH-11" edge="1">
          <mxGeometry width="50" height="50" relative="1" as="geometry">
            <mxPoint x="370" y="320" as="sourcePoint" />
            <mxPoint x="420" y="270" as="targetPoint" />
          </mxGeometry>
        </mxCell>
        <mxCell id="e9KdCS2GyOgtSJh7wHMH-15" value="" style="endArrow=none;html=1;rounded=0;entryX=0.5;entryY=1;entryDx=0;entryDy=0;" parent="1" source="e9KdCS2GyOgtSJh7wHMH-2" target="e9KdCS2GyOgtSJh7wHMH-3" edge="1">
          <mxGeometry width="50" height="50" relative="1" as="geometry">
            <mxPoint x="370" y="320" as="sourcePoint" />
            <mxPoint x="490" y="310" as="targetPoint" />
          </mxGeometry>
        </mxCell>
        <mxCell id="e9KdCS2GyOgtSJh7wHMH-16" value="UML Diagram: Medifine" style="text;html=1;strokeColor=none;fillColor=none;align=center;verticalAlign=middle;whiteSpace=wrap;rounded=0;fontSize=20;fontStyle=3" parent="1" vertex="1">
          <mxGeometry x="150" y="60" width="240" height="30" as="geometry" />
        </mxCell>
        <mxCell id="e9KdCS2GyOgtSJh7wHMH-20" value="Suppliers" style="rounded=0;whiteSpace=wrap;html=1;fontSize=20;strokeWidth=1;fillColor=default;" parent="1" vertex="1">
          <mxGeometry x="514" y="465" width="160" height="30" as="geometry" />
        </mxCell>
        <mxCell id="e9KdCS2GyOgtSJh7wHMH-25" value="Database" style="rounded=0;whiteSpace=wrap;html=1;fontSize=20;strokeWidth=1;fillColor=default;" parent="1" vertex="1">
          <mxGeometry x="394" y="465" width="90" height="30" as="geometry" />
        </mxCell>
        <mxCell id="e9KdCS2GyOgtSJh7wHMH-33" value="" style="endArrow=none;html=1;rounded=0;fontSize=20;entryX=0.5;entryY=1;entryDx=0;entryDy=0;" parent="1" target="e9KdCS2GyOgtSJh7wHMH-25" edge="1">
          <mxGeometry width="50" height="50" relative="1" as="geometry">
            <mxPoint x="439" y="835" as="sourcePoint" />
            <mxPoint x="448.5" y="515" as="targetPoint" />
          </mxGeometry>
        </mxCell>
        <mxCell id="e9KdCS2GyOgtSJh7wHMH-34" value="App" style="rounded=0;whiteSpace=wrap;html=1;fontSize=20;strokeWidth=1;fillColor=default;" parent="1" vertex="1">
          <mxGeometry x="274" y="465" width="90" height="30" as="geometry" />
        </mxCell>
        <mxCell id="4zaN_2Ye_UDs6IpoMeBR-1" value="" style="endArrow=none;html=1;rounded=0;fontSize=20;entryX=0.5;entryY=1;entryDx=0;entryDy=0;" edge="1" parent="1">
          <mxGeometry width="50" height="50" relative="1" as="geometry">
            <mxPoint x="319" y="905" as="sourcePoint" />
            <mxPoint x="318.5" y="495" as="targetPoint" />
          </mxGeometry>
        </mxCell>
        <mxCell id="4zaN_2Ye_UDs6IpoMeBR-2" value="" style="endArrow=classic;html=1;rounded=0;" edge="1" parent="1">
          <mxGeometry width="50" height="50" relative="1" as="geometry">
            <mxPoint x="204" y="555" as="sourcePoint" />
            <mxPoint x="314" y="555" as="targetPoint" />
          </mxGeometry>
        </mxCell>
        <mxCell id="4zaN_2Ye_UDs6IpoMeBR-3" value="Scans identifier" style="text;html=1;strokeColor=none;fillColor=none;align=center;verticalAlign=middle;whiteSpace=wrap;rounded=0;" vertex="1" parent="1">
          <mxGeometry x="194" y="533" width="126" height="30" as="geometry" />
        </mxCell>
        <mxCell id="4zaN_2Ye_UDs6IpoMeBR-5" value="" style="endArrow=classic;html=1;rounded=0;" edge="1" parent="1">
          <mxGeometry width="50" height="50" relative="1" as="geometry">
            <mxPoint x="314" y="595" as="sourcePoint" />
            <mxPoint x="202" y="595" as="targetPoint" />
          </mxGeometry>
        </mxCell>
        <mxCell id="4zaN_2Ye_UDs6IpoMeBR-6" value="openPatientCard()" style="text;html=1;strokeColor=none;fillColor=none;align=center;verticalAlign=middle;whiteSpace=wrap;rounded=0;" vertex="1" parent="1">
          <mxGeometry x="194" y="590" width="126" height="30" as="geometry" />
        </mxCell>
        <mxCell id="4zaN_2Ye_UDs6IpoMeBR-7" value="" style="endArrow=classic;html=1;rounded=0;" edge="1" parent="1">
          <mxGeometry width="50" height="50" relative="1" as="geometry">
            <mxPoint x="204" y="655" as="sourcePoint" />
            <mxPoint x="314" y="655" as="targetPoint" />
          </mxGeometry>
        </mxCell>
        <mxCell id="4zaN_2Ye_UDs6IpoMeBR-8" value="Presses &quot;Update Information&quot;" style="text;html=1;strokeColor=none;fillColor=none;align=center;verticalAlign=middle;whiteSpace=wrap;rounded=0;" vertex="1" parent="1">
          <mxGeometry x="203" y="625" width="118" height="30" as="geometry" />
        </mxCell>
        <mxCell id="4zaN_2Ye_UDs6IpoMeBR-9" value="" style="endArrow=classic;html=1;rounded=0;" edge="1" parent="1">
          <mxGeometry width="50" height="50" relative="1" as="geometry">
            <mxPoint x="327" y="575" as="sourcePoint" />
            <mxPoint x="437" y="575" as="targetPoint" />
          </mxGeometry>
        </mxCell>
        <mxCell id="4zaN_2Ye_UDs6IpoMeBR-10" value="verifyAccess()" style="text;html=1;strokeColor=none;fillColor=none;align=center;verticalAlign=middle;whiteSpace=wrap;rounded=0;" vertex="1" parent="1">
          <mxGeometry x="327" y="553" width="110" height="30" as="geometry" />
        </mxCell>
        <mxCell id="4zaN_2Ye_UDs6IpoMeBR-11" value="" style="endArrow=classic;html=1;rounded=0;" edge="1" parent="1">
          <mxGeometry width="50" height="50" relative="1" as="geometry">
            <mxPoint x="434" y="694" as="sourcePoint" />
            <mxPoint x="204" y="694" as="targetPoint" />
          </mxGeometry>
        </mxCell>
        <mxCell id="4zaN_2Ye_UDs6IpoMeBR-12" value="allowUpdateAccess()" style="text;html=1;strokeColor=none;fillColor=none;align=center;verticalAlign=middle;whiteSpace=wrap;rounded=0;" vertex="1" parent="1">
          <mxGeometry x="299" y="689" width="160" height="30" as="geometry" />
        </mxCell>
        <mxCell id="4zaN_2Ye_UDs6IpoMeBR-13" value="" style="endArrow=classic;html=1;rounded=0;" edge="1" parent="1">
          <mxGeometry width="50" height="50" relative="1" as="geometry">
            <mxPoint x="327" y="675" as="sourcePoint" />
            <mxPoint x="437" y="675" as="targetPoint" />
          </mxGeometry>
        </mxCell>
        <mxCell id="4zaN_2Ye_UDs6IpoMeBR-14" value="requireDataChange()" style="text;html=1;strokeColor=none;fillColor=none;align=center;verticalAlign=middle;whiteSpace=wrap;rounded=0;" vertex="1" parent="1">
          <mxGeometry x="327" y="650" width="110" height="30" as="geometry" />
        </mxCell>
        <mxCell id="4zaN_2Ye_UDs6IpoMeBR-16" value="" style="endArrow=classic;html=1;rounded=0;" edge="1" parent="1">
          <mxGeometry width="50" height="50" relative="1" as="geometry">
            <mxPoint x="203" y="735" as="sourcePoint" />
            <mxPoint x="313" y="735" as="targetPoint" />
          </mxGeometry>
        </mxCell>
        <mxCell id="4zaN_2Ye_UDs6IpoMeBR-17" value="Saves new Data" style="text;html=1;strokeColor=none;fillColor=none;align=center;verticalAlign=middle;whiteSpace=wrap;rounded=0;" vertex="1" parent="1">
          <mxGeometry x="202" y="712" width="110" height="30" as="geometry" />
        </mxCell>
        <mxCell id="4zaN_2Ye_UDs6IpoMeBR-19" value="" style="endArrow=classic;html=1;rounded=0;" edge="1" parent="1">
          <mxGeometry width="50" height="50" relative="1" as="geometry">
            <mxPoint x="324" y="755" as="sourcePoint" />
            <mxPoint x="434" y="755" as="targetPoint" />
          </mxGeometry>
        </mxCell>
        <mxCell id="4zaN_2Ye_UDs6IpoMeBR-20" value="saveUpdatedData()" style="text;html=1;strokeColor=none;fillColor=none;align=center;verticalAlign=middle;whiteSpace=wrap;rounded=0;" vertex="1" parent="1">
          <mxGeometry x="320" y="730" width="110" height="30" as="geometry" />
        </mxCell>
        <mxCell id="4zaN_2Ye_UDs6IpoMeBR-21" value="" style="endArrow=none;html=1;rounded=0;fontSize=20;entryX=0.5;entryY=1;entryDx=0;entryDy=0;" edge="1" parent="1">
          <mxGeometry width="50" height="50" relative="1" as="geometry">
            <mxPoint x="594" y="785" as="sourcePoint" />
            <mxPoint x="594" y="495" as="targetPoint" />
          </mxGeometry>
        </mxCell>
        <mxCell id="4zaN_2Ye_UDs6IpoMeBR-23" value="" style="endArrow=classic;html=1;rounded=0;fontStyle=1" edge="1" parent="1">
          <mxGeometry width="50" height="50" relative="1" as="geometry">
            <mxPoint x="449" y="775" as="sourcePoint" />
            <mxPoint x="589" y="775" as="targetPoint" />
          </mxGeometry>
        </mxCell>
        <mxCell id="4zaN_2Ye_UDs6IpoMeBR-24" value="orderMissingMedicine()" style="text;html=1;strokeColor=none;fillColor=none;align=center;verticalAlign=middle;whiteSpace=wrap;rounded=0;" vertex="1" parent="1">
          <mxGeometry x="454" y="751" width="120" height="30" as="geometry" />
        </mxCell>
        <mxCell id="4zaN_2Ye_UDs6IpoMeBR-26" value="Verification" style="text;html=1;strokeColor=none;fillColor=none;align=center;verticalAlign=middle;whiteSpace=wrap;rounded=0;" vertex="1" parent="1">
          <mxGeometry x="473" y="781" width="120" height="30" as="geometry" />
        </mxCell>
        <mxCell id="4zaN_2Ye_UDs6IpoMeBR-27" value="" style="endArrow=classic;html=1;rounded=0;" edge="1" parent="1">
          <mxGeometry width="50" height="50" relative="1" as="geometry">
            <mxPoint x="437" y="583" as="sourcePoint" />
            <mxPoint x="324" y="583" as="targetPoint" />
          </mxGeometry>
        </mxCell>
        <mxCell id="4zaN_2Ye_UDs6IpoMeBR-28" value="Verification" style="text;html=1;strokeColor=none;fillColor=none;align=center;verticalAlign=middle;whiteSpace=wrap;rounded=0;" vertex="1" parent="1">
          <mxGeometry x="320" y="575" width="120" height="30" as="geometry" />
        </mxCell>
        <mxCell id="4zaN_2Ye_UDs6IpoMeBR-29" value="" style="endArrow=classic;html=1;rounded=0;" edge="1" parent="1">
          <mxGeometry width="50" height="50" relative="1" as="geometry">
            <mxPoint x="594" y="784" as="sourcePoint" />
            <mxPoint x="459" y="784" as="targetPoint" />
          </mxGeometry>
        </mxCell>
        <mxCell id="4zaN_2Ye_UDs6IpoMeBR-31" value="" style="endArrow=classic;html=1;rounded=0;" edge="1" parent="1">
          <mxGeometry width="50" height="50" relative="1" as="geometry">
            <mxPoint x="440" y="835" as="sourcePoint" />
            <mxPoint x="330" y="835" as="targetPoint" />
          </mxGeometry>
        </mxCell>
        <mxCell id="4zaN_2Ye_UDs6IpoMeBR-32" value="alertMedicalStaff()" style="text;html=1;strokeColor=none;fillColor=none;align=center;verticalAlign=middle;whiteSpace=wrap;rounded=0;" vertex="1" parent="1">
          <mxGeometry x="208" y="841" width="120" height="30" as="geometry" />
        </mxCell>
        <mxCell id="4zaN_2Ye_UDs6IpoMeBR-34" value="" style="endArrow=classic;html=1;rounded=0;" edge="1" parent="1">
          <mxGeometry width="50" height="50" relative="1" as="geometry">
            <mxPoint x="318" y="865" as="sourcePoint" />
            <mxPoint x="208" y="865" as="targetPoint" />
          </mxGeometry>
        </mxCell>
        <mxCell id="4zaN_2Ye_UDs6IpoMeBR-35" value="showAlert()" style="text;html=1;strokeColor=none;fillColor=none;align=center;verticalAlign=middle;whiteSpace=wrap;rounded=0;" vertex="1" parent="1">
          <mxGeometry x="334" y="811" width="120" height="30" as="geometry" />
        </mxCell>
        <mxCell id="4zaN_2Ye_UDs6IpoMeBR-36" value="" style="endArrow=classic;html=1;rounded=0;" edge="1" parent="1">
          <mxGeometry width="50" height="50" relative="1" as="geometry">
            <mxPoint x="204" y="807" as="sourcePoint" />
            <mxPoint x="433" y="807" as="targetPoint" />
          </mxGeometry>
        </mxCell>
        <mxCell id="4zaN_2Ye_UDs6IpoMeBR-37" value="Patient&#39;s wellbeing is under danger" style="text;html=1;strokeColor=none;fillColor=none;align=center;verticalAlign=middle;whiteSpace=wrap;rounded=0;" vertex="1" parent="1">
          <mxGeometry x="211" y="785" width="202" height="30" as="geometry" />
        </mxCell>
        <mxCell id="4zaN_2Ye_UDs6IpoMeBR-41" value="" style="endArrow=classic;html=1;rounded=0;" edge="1" parent="1">
          <mxGeometry width="50" height="50" relative="1" as="geometry">
            <mxPoint x="210" y="905" as="sourcePoint" />
            <mxPoint x="320" y="905" as="targetPoint" />
          </mxGeometry>
        </mxCell>
        <mxCell id="4zaN_2Ye_UDs6IpoMeBR-42" value="Danger is over" style="text;html=1;strokeColor=none;fillColor=none;align=center;verticalAlign=middle;whiteSpace=wrap;rounded=0;" vertex="1" parent="1">
          <mxGeometry x="202" y="882" width="120" height="30" as="geometry" />
        </mxCell>
        <mxCell id="4zaN_2Ye_UDs6IpoMeBR-43" value="" style="shape=umlDestroy;whiteSpace=wrap;html=1;strokeWidth=3;" vertex="1" parent="1">
          <mxGeometry x="304" y="890" width="30" height="30" as="geometry" />
        </mxCell>
        <mxCell id="4zaN_2Ye_UDs6IpoMeBR-46" value="" style="rounded=0;whiteSpace=wrap;html=1;fillColor=none;strokeWidth=5;" vertex="1" parent="1">
          <mxGeometry x="120" y="440" width="600" height="520" as="geometry" />
        </mxCell>
        <mxCell id="4zaN_2Ye_UDs6IpoMeBR-45" value=":Object" style="shape=umlLifeline;perimeter=lifelinePerimeter;whiteSpace=wrap;html=1;container=1;collapsible=0;recursiveResize=0;outlineConnect=0;" vertex="1" parent="1">
          <mxGeometry x="153" y="460" width="100" height="490" as="geometry" />
        </mxCell>
      </root>
    </mxGraphModel>
  </diagram>
</mxfile>
